<?xml version="1.0" encoding="UTF-8" standalone="no"?>
<svg
   xml:space="preserve"
   width="1653.5839"
   height="1545.6765"
   version="1.1"
   id="svg20"
   sodipodi:docname="logo.svg"
   inkscape:version="1.4 (e7c3feb1, 2024-10-09)"
   xmlns:inkscape="http://www.inkscape.org/namespaces/inkscape"
   xmlns:sodipodi="http://sodipodi.sourceforge.net/DTD/sodipodi-0.dtd"
   xmlns="http://www.w3.org/2000/svg"
   xmlns:svg="http://www.w3.org/2000/svg"><defs
     id="defs20" /><sodipodi:namedview
     id="namedview20"
     pagecolor="#ffffff"
     bordercolor="#000000"
     borderopacity="0.25"
     inkscape:showpageshadow="2"
     inkscape:pageopacity="0.0"
     inkscape:pagecheckerboard="0"
     inkscape:deskcolor="#d1d1d1"
     inkscape:zoom="0.31435161"
     inkscape:cx="1342.4458"
     inkscape:cy="935.25845"
     inkscape:window-width="2272"
     inkscape:window-height="1391"
     inkscape:window-x="0"
     inkscape:window-y="31"
     inkscape:window-maximized="0"
     inkscape:current-layer="svg20" /><path
     fill="#8b2635"
     d="m 1515.0198,1011.2601 a 112394.45,112394.45 0 0 0 -45.786,130.764 c -3.734,10.68 -7.693,21.294 -11.04,32.097 -2.448,7.904 -6.569,14.348 -12.8,19.78 -34.149,29.77 -68.057,59.817 -102.297,89.482 -55.638,48.205 -111.45,96.21 -167.227,144.252 -23.474,20.218 -47.087,40.275 -70.543,60.514 -4.503,3.885 -9.49,5.564 -15.36,6.253 -34.39,4.038 -68.751,8.321 -103.10696,12.64 -39.64,4.982 -79.265,10.07 -118.893,15.143 -37.979,4.862 -75.948,9.793 -113.93,14.635 -23.119,2.947 -46.257,5.743 -69.376,8.698 -6.336,0.81 -11.715,-1.618 -17.124,-4.315 -32.78,-16.347 -65.555,-32.705 -98.378,-48.968 -64.75,-32.08 -129.556,-64.049 -194.288,-96.165 -51.309,-25.455 -102.498,-51.152 -153.854,-76.512 -8.386,-4.14 -14.428,-9.77 -19.254,-17.932 a 18153.422,18153.422 0 0 0 -95.942,-160.326 c -8.906998,-14.715 -15.119998,-30.022 -18.525998,-46.998 -7.398,-36.866 -15.872,-73.519 -24.143,-110.20499 -15.662,-69.473 -31.482,-138.91 -47.254,-208.36 -4.938,-21.742 -9.7480003,-43.518 -15.0070003,-65.184 -1.666,-6.867 -0.993,-12.804 2,-19.231 22.9120003,-49.187 45.4190003,-98.562 68.2830003,-147.77 25.81,-55.548 51.735998,-111.042 77.843998,-166.45 27.246,-57.825 54.832,-115.49 82.061,-173.322 2.374,-5.043 5.863,-7.576 10.792,-9.372 92.871,-33.84 185.692,-67.817 278.563,-101.654995 82.553,-30.078 165.186,-59.936 247.69,-90.1480004 8.9,-3.26000003 17.031,-3.35900003 26.155,-0.863 103.375,28.2800004 206.84296,56.2200004 310.27196,84.3050004 14.13,3.837 28.285,7.648 42.217,12.13 5.876,1.889995 11.879,4.632995 16.68,8.433995 84.326,66.763 168.229,134.066 252.905,200.381 14.361,11.248 23.286,24.13 29.304,41.015 39.094,109.694 78.85,219.151 118.37,328.693 0.992,2.748 1.769,5.573 2.999,9.484 l -78.777,24.989 c -1.672,-3.937 -3.08,-6.852 -4.172,-9.882 -38.713,-107.39 -77.424,-214.78 -116.002,-322.217 -1.903,-5.298 -4.997,-9.273 -9.265,-12.646 -61.395,-48.53 -122.81,-97.034 -184.145,-145.64 -16.441,-13.03 -32.46,-26.597 -49.04,-39.444 -4.85,-3.758 -10.664,-6.98 -16.544,-8.593 -103.023,-28.273 -206.14496,-56.184 -309.17696,-84.425995 -9.823,-2.692 -18.611,-1.872 -28.105,1.587 -95.997,34.975995 -192.16,69.497995 -288.174,104.427995 -60.975,22.182 -121.761,44.887 -182.692,67.193 -5.096,1.866 -8.196,4.752 -10.495,9.686 -35.563,76.343 -71.293,152.608 -107,228.883 -29.358,62.711 -58.737,125.412 -88.109998,188.117 -0.423,0.904 -0.778,1.869 -1.355,2.67 -8.494,11.797 -7.66,23.949 -4.375,37.753 15.945998,67.007 30.829998,134.266 46.075998,201.44 11.637,51.276 23.154,102.57999 35.009,153.80499 1.325,5.728 3.894,11.392 6.923,16.467 28.678,48.04 57.612,95.926 86.364,143.922 2.678,4.47 6.077,7.56 10.776,9.884 61.789,30.554 123.461,61.345 185.25,91.9 68.945,34.095 137.98,68.01 206.974,102.003 0.598,0.294 1.246,0.516 1.785,0.895 15.322,10.784 31.698,11.885 50.157,9.205 60.28,-8.754 120.793,-15.901 181.215,-23.677 41.28,-5.312 82.555,-10.667 123.83996,-15.947 11.224,-1.435 22.46,-2.812 33.72,-3.932 5.962,-0.593 10.59,-3.302 15.011,-7.13 a 152556.19,152556.19 0 0 1 196.577,-169.927 c 34.304,-29.596 68.684,-59.104 103.187,-88.468 6.818,-5.803 11.333,-12.53 14.247,-21.077 18.793,-55.124 37.863,-110.153 57.05,-165.14199 13.155,-37.708 26.627,-75.306 40.01,-112.934 1.646,-4.626 3.621,-9.134 5.857,-14.73 l 77.648,24.349 c -16.729,51.43 -35.295,100.887 -52.255,151.71299 z"
     id="path1" /><path
     fill="#a35533"
     d="m 314.73584,848.05911 c 0,-55.994 0.024,-110.99 -0.015,-165.984 -0.012,-17.328 -0.037,-34.66 -0.362,-51.984 -0.157,-8.335 1.995,-15.62 6.834,-22.45 21.762,-30.711 43.291,-61.588 65.001,-92.337 28.054,-39.734 56.384,-79.276 84.154,-119.206 5.702,-8.199 12.64,-13.254 22,-15.904 20.495,-5.8 40.905,-11.9 61.372,-17.798 68.116,-19.626 136.244,-39.205 204.357,-58.84 7.353,-2.12 14.863,-3.935 21.901,-6.854 16.615,-6.892 33.364,-6.761 50.914,-4.209 44.477,6.468 89.104,11.9 133.674,17.727 5.943,0.777 11.894,1.51 17.857,2.115 5.911,0.6 10.563,3.44 14.942,7.294 35.49296,31.243 71.01996,62.451 106.63196,93.559 39.621,34.608 79.239,69.222 119.117,103.531 7.401,6.367 12.36,13.534 14.832,22.95 11.827,45.05 23.77,90.07 35.912,135.037 8.588,31.803 17.438,63.537 26.485,95.212 1.496,5.236 0.651,9.841 -0.852,14.609 -16.217,51.434 -32.566,102.826 -48.676,154.293 -14.418,46.061 -28.692,92.16799 -42.74,138.34299 -2.155,7.082 -5.56,12.034 -12.05,16.02 -78.339,48.12 -156.503,96.522 -234.70696,144.86 -20.68,12.782 -41.49,25.364 -61.912,38.546 -5.535,3.572 -10.688,4.58 -16.908,3.423 -23.562,-4.386 -47.161,-8.571 -70.745,-12.835 -65.186,-11.785 -130.382,-23.509 -195.55,-35.386 -30.781,-5.61 -61.487,-11.628 -92.275,-17.196 -6.056,-1.096 -10.177,-4.014 -13.716,-8.883 -26.44,-36.375 -53.03,-72.64 -79.589,-108.927 -2.129,-2.909 -4.382,-5.726 -7.487,-9.77 7.18,-1.665 13.408,-3.258 19.7,-4.545 28.046,-5.738 56.188,-11.043 84.12,-17.289 8.049,-1.8 13.802,-0.302 20.117,4.629 16.011,12.5 32.782,24.028 48.782,36.54 21.828,17.07 46.712,27.987 72.345,37.612 26.498,9.948 52.889,20.187 79.5,29.82 5.094,1.843 11.199,2.749 16.49,1.906 47.34,-7.537 94.648,-15.298 141.847,-23.663 9.674,-1.714 19.342,-5.237 28.173,-9.618 39.381,-19.534 78.43396,-39.73 117.66196,-59.575 9.146,-4.627 16.585,-10.902 22.086,-19.63 25.038,-39.735 50.433,-79.24699 75.091,-119.21499 5.331,-8.64 9.078,-18.556 11.965,-28.353 12.135,-41.181 23.606,-82.557 35.48,-123.816 1.92,-6.67 1.715,-13.018 -0.118,-19.628 -11.477,-41.376 -22.941,-82.757 -34.126,-124.212 -2.81,-10.415 -6.934,-20.008 -12.727,-29.111 -22.355,-35.13 -44.362,-70.48 -66.77,-105.574 -2.78,-4.357 -6.677,-8.407 -10.918,-11.363 -35.865,-25.002 -73.91096,-46.367 -112.83196,-66.149 -23.569,-11.979 -48.776,-19.545 -74.515,-25.368 -24.349,-5.509 -48.635,-11.312 -73.064,-16.439 -5.984,-1.256 -12.708,-1.639 -18.597,-0.278 a 7485.566,7485.566 0 0 0 -125.248,30.1 c -7.309,1.822 -14.55,5.016 -21.024,8.905 -38.26,22.98 -76.345,46.255 -114.31,69.718 -4.694,2.9 -9.383,6.842 -12.292,11.43 -23.543,37.13 -46.9,74.385 -69.712,111.966 -4.748,7.823 -7.806,16.938 -10.268,25.838 -10.824,39.128 -21.075,78.414 -31.702,117.596 -2.33,8.589 -2.49,16.838 -0.072,25.514 11.168,40.065 22.455,80.108 32.679,120.418 3.119,12.297 8.385,22.937 15.203,33.288 16.495,25.039 32.738,50.243 49.053,75.39999 1.239,1.91 2.242,3.973 4.119,7.332 -9.366,1.983 -17.92,3.828 -26.49,5.603 -25.099,5.198 -50.25,10.156 -75.273,15.69 -6.55,1.45 -10.53,-0.11 -14.409,-5.455 -22.504,-31.009 -45.11,-61.94799 -68.066,-92.62299 -7.325,-9.789 -10.79,-20.011 -10.467,-32.36 0.637,-24.317 0.187,-48.663 0.188,-73.997 z"
     id="path2" /><path
     fill="#bd5e32"
     d="m 274.18984,396.38111 c 1.21,-2.471 2.352,-4.17 2.996,-6.04 6.266,-18.205 18.099,-32.099 32.585,-44.452 27.622,-23.554 54.716,-47.727 82.052,-71.617 0.953,-0.833 2.146,-1.392 4.34,-2.785 l 45.733,98.668 c -5.96,8.495 -12.05,17.177 -18.143,25.856 -43.251,61.605 -86.269,123.377 -129.93,184.69 -10.208,14.337 -15.793,28.916 -16.59,46.83 -1.271,28.558 -5.283,57 -8.311,85.474 -2.112,19.856 -5.096,39.639 -6.548,59.538 -0.72,9.854 0.816,19.931 1.888,29.847 3.467,32.098 7.348,64.151 10.743,96.256 1.4,13.236 2.184,26.549 2.838,39.847 0.419,8.52 2.366,16.097 7.518,23.242 30.055,41.67999 55.399,86.29199 80.276,131.13999 8.74,15.757 21.29,28.047 33.215,41 16.243,17.646 33.235,34.634 48.88,52.789 13.9,16.129 26.446,33.429 39.466,50.307 1.798,2.331 3.504,5.056 4.206,7.86 6.38,25.498 12.54,51.052 18.705,76.603 0.29,1.205 0.037,2.542 0.037,5.437 -3.906,-1.628 -7.14,-2.768 -10.189,-4.278 -43.266,-21.43 -86.48,-42.965 -129.765,-64.358 -22.684,-11.212 -45.573,-22.015 -68.141,-33.453 -4.188,-2.122 -8.292,-5.774 -10.737,-9.762 -25.94,-42.298 -51.665,-84.729 -77.082,-127.342 -3.676,-6.163 -6.318,-13.273 -7.92,-20.292 -22.307,-97.63999 -44.363,-195.33899 -66.441,-293.03199 -4.108,-18.175 -7.795,-36.45 -12.198,-54.55 -1.378,-5.662 -0.42,-10.32 1.95,-15.299 18.04,-37.876 36.075,-75.754 53.896,-113.733 22.063,-47.018 43.916,-94.135 65.865,-141.206 8.16,-17.501 16.336,-34.996 24.805,-53.185 z"
     id="path3" /><path
     fill="#925132"
     d="m 538.27784,827.62811 c 20.14,43.953 40.094,87.158 59.76,130.495 3.621,7.981 9.105,13.329 16.615,17.706 41.139,23.98 82.066,48.32499 123.055,72.56299 0.554,0.328 0.968,0.89 2.411,2.253 l -31.537,68.472 c -3.567,-1.52 -6.07,-2.267 -8.248,-3.561 -31.208,-18.535 -62.374,-37.141 -93.545,-55.737 -16.014,-9.553 -31.934,-19.267 -48.069,-28.61 -6.799,-3.937 -12.208,-9.028 -16.768,-15.361 -13.55,-18.81599 -22.575,-39.99199 -31.71,-61.04499 -22.92,-52.822 -45.347,-105.858 -68.186,-158.715 -3.122,-7.227 -3.176,-13.675 -0.31,-21.063 26.373,-67.99 55.458,-134.821 86.166,-200.932 6.826,-14.695 16.352,-28.189 25.247,-41.837 2.593,-3.98 6.833,-7.545 11.128,-9.636 15.246,-7.423 30.625,-14.665 46.344,-21.008 58.94,-23.786 118.09,-47.051 177.023,-70.852 12.068,-4.874 23.428,-6.341 35.609,-0.57 11.37,5.388 23.196,9.816 34.653,14.596 -1.671,7.94 -28.606,55.614 -36.807,65.323 -9.78,-6.777 -19.243,-2.032 -28.911,1.74 -43.403,16.938 -86.882,33.683 -130.263,50.675 -13.01,5.096 -25.786,10.785 -38.682,16.173 -9.533,3.983 -16.94,9.887 -21.273,19.794 -11.47,26.222 -23.509,52.194 -35.17,78.333 -14.914,33.425 -29.58,66.96 -44.622,100.325 -2.114,4.689 -2.333,8.556 -0.207,13.197 5.545,12.098 10.701,24.374 16.297,37.282 z"
     id="path4" /><path
     fill="#c68d3b"
     d="m 1001.6458,875.80911 c -5.27396,15.91 -10.51996,31.002 -15.30196,46.238 -1.84,5.864 -5.272,9.55 -10.621,12.384 -47.063,24.935 -94.094,49.93 -140.973,75.20799 -7.907,4.263 -15.232,5.05 -23.843,2.4 -52.468,-16.14499 -104.963,-32.21799 -157.654,-47.61099 -11.547,-3.374 -19.212,-8.935 -23.576,-20.277 -8.72,-22.665 -18.153,-45.055 -27.337,-67.54 -10.066,-24.643 -19.858,-49.405 -30.434,-73.827 -4.41,-10.186 -4.465,-19.212 -0.335,-29.642 19.233,-48.573 37.848,-97.392 56.435,-146.218 2.319,-6.091 5.723,-9.884 11.864,-12.26 51.824,-20.048 103.574,-40.287 155.28,-60.636 4.813,-1.893 9.022,-1.125 13.441,0.585 23.9,9.247 47.819,18.449 71.705,27.733 26.365,10.247 52.615,20.797 79.095,30.735 9.901,3.716 15.884,8.98 19.708,19.821 15.825,44.863 32.97496,89.265 50.06696,133.671 3.331,8.653 3.465,16.522 0.517,25.145 -9.472,27.709 -18.576,55.543 -28.037,84.09 m -70.10496,17.001 c 6.312,-3.947 9.406,-10.033 11.595,-16.877 8.108,-25.348 15.828,-50.839 24.728,-75.909 4.902,-13.81 7.447,-26.726 -1.435,-39.703 -0.909,-1.328 -1.131,-3.116 -1.721,-4.671 -8.727,-23.018 -17.42,-46.048 -26.245,-69.028 -1.172,-3.053 -2.331,-6.68 -4.674,-8.622 -13.274,-11.005 -25.52,-23.528 -41.874,-30.26 a 5358.891,5358.891 0 0 0 -46.238,-18.784 c -12.349,-4.95 -24.788,-9.673 -37.133,-14.633 -4.906,-1.972 -9.404,-1.845 -14.41,0.184 -15.102,6.12 -30.447,11.636 -45.602,17.629 -21.963,8.684 -43.84,17.582 -65.758,26.381 -5.86,2.353 -9.493,6.25 -11.784,12.491 -13.177,35.913 -26.594,71.744 -40.472,107.39 -3.065,7.873 -2.798,14.638 0.708,21.969 4.16,8.699 7.793,17.65 11.8,26.424 12.158,26.616 23.118,53.811 38.76,78.733 4.082,6.502 8.992,10.863 16.602,13.177 37.233,11.323 74.362,22.997 111.423,34.875 6.625,2.124 12.075,1.25 17.918,-2.07 34.143,-19.402 68.391,-38.617 103.812,-58.696 z"
     id="path5" /><path
     fill="#bd5e32"
     d="m 714.82484,150.94511 c 21.092,-7.617 41.527,-14.755 61.807,-22.307 7.194,-2.679 13.89,-2.891 21.372,-0.844 90.868,24.855 181.807,49.449 272.72396,74.127 2.867,0.778 5.689,1.723 10.072,3.061 -7.311,6.301 -13.663,11.976 -20.226,17.396 -19.781,16.336 -39.678,32.532 -59.446,48.884 -3.85696,3.19 -7.74396,4.212 -12.85496,3.54 -57.77,-7.583 -115.575,-14.9 -173.364,-22.343 -8.696,-1.12 -17.02,-0.596 -25.604,1.931 -99.638,29.338 -199.358,58.396 -299.052,87.542 -5.388,1.576 -10.74,3.279 -17.305,5.289 l -42.357,-91.91 c 47.71,-18.092 95,-34.659 142.02,-51.95 47.172,-17.347 94.331,-34.732 142.214,-52.416 z"
     id="path6" /><path
     fill="#c68d3a"
     d="m 1445.5848,704.36511 c 2.369,6.246 4.504,11.756 7.113,18.486 -38.543,12.884 -76.386,24.82 -115.635,36.102 -2.637,-8.296 -5.179,-15.436 -7.178,-22.724 -9.15,-33.358 -18.094,-66.773 -27.217,-100.139 -10.179,-37.226 -20.263,-74.481 -30.903,-111.576 -1.961,-6.837 -5.44,-13.7 -9.81,-19.31 -30.3,-38.878 -61.121,-77.348 -91.515,-116.154 -5.678,-7.25 -12.318,-12.787 -20.194,-17.451 -37.533,-22.23 -74.89,-44.757 -112.29,-67.209 -2.81,-1.687 -5.48,-3.609 -9.273,-6.124 2.48,-2.546 4.267,-4.744 6.404,-6.52 a 25155.642,25155.642 0 0 1 74.637,-61.827 c 6.661,-5.494 7.23,-5.619 14.557,0.061 18.684,14.485 37.204,29.182 55.764,43.828 46.52,36.708 92.943,73.542 139.611,110.063 9.264,7.25 15.19,15.908 19.177,27.075 22.933,64.241 46.466,128.268 69.828,192.355 12.196,33.455 24.458,66.885 36.924,101.064 z M 537.33584,1274.7071 c -1.65,-6.246 -3.07,-11.718 -4.778,-18.29 2.885,0.228 5.325,0.218 7.69,0.636 62.553,11.062 125.108,22.11 187.641,33.284 a 38026.124,38026.124 0 0 1 149.244,26.965 c 18.259,3.337 18.27,3.616 34.75,-5.46 53.687,-29.563 109.07596,-55.708 164.34996,-82.092 11.379,-5.431 22.475,-11.454 35.015,-17.877 13.243,25.844 24.266,52.755 37.149,79.456 -2.772,2.85 -5.102,5.634 -7.815,7.975 -25.71,22.187 -51.88,43.86 -77.039,66.651 -9.79,8.869 -20.341,12.578 -32.994,13.967 -29.748,3.267 -59.39996,7.407 -89.09496,11.165 -29.373,3.718 -58.75,7.395 -88.125,11.102 -33.66,4.247 -67.316,8.53 -100.98,12.754 -14.19,1.78 -28.419,3.28 -42.584,5.237 -8.32,1.15 -15.686,-0.88 -23.035,-4.595 -24.366,-12.314 -48.855,-24.383 -73.314,-36.512 -16.404,-8.134 -32.72,-16.46 -49.318,-24.178 -5.807,-2.7 -8.51,-6.679 -9.936,-12.588 -5.384,-22.31 -11.042,-44.555 -16.826,-67.6 z m 696.73096,-56.466 a 190505.57,190505.57 0 0 0 -55.502,47.414 c -1.636,-2.262 -2.809,-3.432 -3.454,-4.843 -10.237,-22.401 -20.51,-44.789 -30.536,-67.285 -3.35,-7.517 -3.123,-7.748 3.546,-13.177 27.898,-22.712 55.766,-45.46 83.853,-67.937 4.828,-3.864 6.86,-8.901 8.61,-14.234 7.371,-22.453 14.706,-44.92 21.798,-67.463 16.184,-51.44099 32.262,-102.91599 48.293,-154.40499 8.51,-27.33 16.827,-54.719 25.25,-82.075 0.578,-1.877 1.312,-3.705 2.44,-6.86 38.33,10.007 75.375,23.353 113.808,35.858 -1.245,4.308 -2.066,7.759 -3.232,11.09 -15.399,43.986 -30.833,87.96 -46.284,131.927 -16.336,46.48399 -32.753,92.93999 -49.007,139.45299 -3.26,9.328 -8.08,17.192 -15.8,23.701 -31.071,26.191 -61.844,52.736 -92.715,79.163 -3.543,3.033 -7.017,6.145 -11.068,9.673 z"
     id="path7" /><path
     fill="#925132"
     d="m 853.68884,1119.9491 c -28.746,7.675 -56.761,14.964 -84.64,22.746 -9.656,2.696 -17.4,-0.99 -26.224,-4.795 1.375,-3.81 2.33,-6.915 3.595,-9.888 7.697,-18.076 15.712,-36.022 23.075,-54.233 2.611,-6.457 6.538,-9.713 13.17,-11.848 58.924,-18.967 117.565,-38.83 176.656,-57.255 18.196,-5.67499 29.833,-17.32999 37.96,-32.92499 16.61396,-31.876 32.26596,-64.256 48.20796,-96.48 6.642,-13.428 12.98,-27.007 19.54,-40.476 1.144,-2.347 2.7,-4.493 3.98,-6.592 7.395,1.678 51.826,27.485 65.455,38.003 -1.553,4.302 -2.795,9.114 -4.943,13.481 -22.337,45.416 -44.805,90.766 -67.287,136.10999 -1.92,3.875 -4.278,7.53 -6.295,11.36 -4.277,8.12 -10.56,14.12 -17.801,19.822 -20.17,15.882 -42.39996,26.958 -66.96096,34.513 -39.123,12.033 -77.824,25.438 -117.488,38.456 z"
     id="path9" /><path
     fill="#925133"
     d="m 1062.5718,735.36111 c -18.594,-41.742 -36.876,-82.786 -55.213,-123.806 -1.493,-3.338 -3.757,-6.364 -4.99,-9.778 -4.89996,-13.575 -14.96096,-20.855 -28.02596,-26.146 -36.713,-14.868 -73.078,-30.595 -109.573,-46.002 -2.382,-1.005 -4.699,-2.163 -8.247,-3.806 l 37.384,-65.832 c 8.233,3.237 15.606,6.063 22.923,9.026 33.624,13.616 67.18,27.405 100.88496,40.818 8.598,3.421 15.778,8.176 21.753,15.29 6.42,7.644 13.815,14.47 20.212,22.132 4.644,5.562 9.242,11.478 12.345,17.962 28.026,58.574 53.845,118.11 76.717,178.9 4.452,11.834 8.611,23.778 13.036,35.623 1.82,4.869 2.109,9.516 0.371,14.562 -4.093,11.888 -6.768,24.303 -13.269,35.905 -2.494,-1.134 -4.637,-1.875 -6.544,-3.013 -17.446,-10.413 -34.9,-20.815 -52.214,-31.445 -2.643,-1.623 -5.578,-3.994 -6.68,-6.708 -7.12,-17.553 -13.77,-35.297 -20.87,-53.682 z"
     id="path10" /><path
     fill="#8c2836"
     d="m 1631.0278,705.40711 c 7.654,-2.487 14.554,-4.716 21.454,-6.944 l 1.102,1.41 -66.002,72.895 64.874,71.736 -1.125,1.766 -229.025,-73.68 c 70.93,-22.825 139.449,-44.875 208.722,-67.183 z"
     id="path14" /><path
     fill="#be5f33"
     d="m 902.18984,864.24311 c -27.26,18.192 -55.483,33.09 -84.815,45.886 -2.764,1.206 -6.594,1.412 -9.513,0.595 -24.022,-6.722 -47.907,-13.931 -71.916,-20.697 -9.868,-2.781 -17.002,-8.499 -22.265,-17.182 -10.352,-17.08 -20.543,-34.283 -31.619,-50.889 -7.936,-11.898 -7.334,-24.637 -5.808,-37.53 2.593,-21.909 7.58,-43.485 16.965,-63.391 8.605,-18.255 21.234,-33.717 41.32,-41.08 16.866,-6.18 33.744,-12.332 50.5,-18.8 10.074,-3.888 20.138,-4.606 30.214,-0.82 19.284,7.248 38.727,14.188 57.525,22.554 6.956,3.095 12.694,9.441 18.239,15.046 5.357,5.414 9.915,11.659 14.503,17.78 2.564,3.42 5,7.119 6.585,11.058 5.835,14.504 11.626,29.045 16.683,43.83 1.522,4.449 1.834,10.068 0.6,14.577 -6.406,23.412 -13.36,46.68 -20.49,69.885 -0.997,3.244 -4.012,5.868 -6.707,9.178 m -87.928,-149.798 c -1.931,-0.49 -3.939,-0.787 -5.782,-1.505 -7.932,-3.094 -15.445,-2.282 -22.955,1.606 -10.915,5.65 -22.202,10.612 -32.892,16.644 -4.094,2.31 -8.099,6.187 -10.22,10.334 -8.223,16.08 -12.758,33.492 -15.903,51.186 -0.627,3.523 0.397,8.202 2.401,11.174 7.226,10.713 15.484,20.727 22.772,31.402 4.038,5.914 9.077,9.385 15.918,10.921 11.993,2.692 23.99,5.41 35.868,8.553 6.18,1.636 11.751,1.195 17.276,-1.926 11.573,-6.539 23.245,-12.903 34.79,-19.489 6.652,-3.793 11.39,-9.39 12.793,-17.004 2.764,-14.99 5.242,-30.037 7.57,-45.102 0.845,-5.462 -0.796,-10.54 -4.254,-14.95 -2.666,-3.398 -5.17,-6.933 -7.968,-10.218 -19.394,-22.766 -19.412,-22.75 -49.414,-31.626 z"
     id="path19" /></svg>
